HIERARCHY
ROOT Hips
{
	OFFSET -21.947001 39.810204 44.525997
	CHANNELS 6 Xposition Yposition Zposition Zrotation Xrotation Yrotation
	JOINT Chest
	{
		OFFSET -0.201599 0.334099 6.453201
		CHANNELS 6 Xposition Yposition Zposition Zrotation Xrotation Yrotation
		JOINT Chest2
		{
			OFFSET 0.000000 0.000000 3.568001
			CHANNELS 6 Xposition Yposition Zposition Zrotation Xrotation Yrotation
			JOINT Neck
			{
				OFFSET 0.000000 0.000000 8.296402
				CHANNELS 6 Xposition Yposition Zposition Zrotation Xrotation Yrotation
				JOINT Head
				{
					OFFSET 0.000000 0.000000 2.173901
					CHANNELS 6 Xposition Yposition Zposition Zrotation Xrotation Yrotation
					End Site
					{
						OFFSET 0.000000 0.000000 7.891998
					}
				}
			}
			JOINT LeftCollar
			{
				OFFSET 1.927601 0.221401 6.049000
				CHANNELS 6 Xposition Yposition Zposition Zrotation Xrotation Yrotation
				JOINT LeftShoulder
				{
					OFFSET 4.959700 0.000000 0.000000
					CHANNELS 6 Xposition Yposition Zposition Zrotation Xrotation Yrotation
					JOINT LeftElbow
					{
						OFFSET 0.000000 0.000000 -8.654202
						CHANNELS 6 Xposition Yposition Zposition Zrotation Xrotation Yrotation
						JOINT LeftWrist
						{
							OFFSET 0.000000 0.000000 -13.864101
							CHANNELS 6 Xposition Yposition Zposition Zrotation Xrotation Yrotation
							End Site
							{
								OFFSET 0.000000 0.000000 -2.173901
							}
						}
					}
				}
			}
			JOINT RightCollar
			{
				OFFSET -3.155701 -0.764999 6.687801
				CHANNELS 6 Xposition Yposition Zposition Zrotation Xrotation Yrotation
				JOINT RightShoulder
				{
					OFFSET -3.592899 0.000000 0.000000
					CHANNELS 6 Xposition Yposition Zposition Zrotation Xrotation Yrotation
					JOINT RightElbow
					{
						OFFSET 0.000000 0.000000 -10.352398
						CHANNELS 6 Xposition Yposition Zposition Zrotation Xrotation Yrotation
						JOINT RightWrist
						{
							OFFSET 0.000000 0.000000 -12.750301
							CHANNELS 6 Xposition Yposition Zposition Zrotation Xrotation Yrotation
							End Site
							{
								OFFSET 0.000000 0.000000 -2.173901
							}
						}
					}
				}
			}
		}
	}
	JOINT LeftHip
	{
		OFFSET 2.460600 -0.518101 -2.735500
		CHANNELS 6 Xposition Yposition Zposition Zrotation Xrotation Yrotation
		JOINT LeftKnee
		{
			OFFSET 0.000000 -0.000004 -17.005899
			CHANNELS 6 Xposition Yposition Zposition Zrotation Xrotation Yrotation
			JOINT LeftAnkle
			{
				OFFSET 0.000000 0.000000 -19.194401
				CHANNELS 6 Xposition Yposition Zposition Zrotation Xrotation Yrotation
				End Site
				{
					OFFSET 0.000000 -8.134600 0.000000
				}
			}
		}
	}
	JOINT RightHip
	{
		OFFSET -3.115499 -0.679600 -2.320301
		CHANNELS 6 Xposition Yposition Zposition Zrotation Xrotation Yrotation
		JOINT RightKnee
		{
			OFFSET 0.000000 -0.000004 -17.680401
			CHANNELS 6 Xposition Yposition Zposition Zrotation Xrotation Yrotation
			JOINT RightAnkle
			{
				OFFSET 0.000000 0.000000 -16.993797
				CHANNELS 6 Xposition Yposition Zposition Zrotation Xrotation Yrotation
				End Site
				{
					OFFSET 0.000000 -8.842300 0.000000
				}
			}
		}
	}
}
MOTION
Frames: 4
Frame Time: 0.041667
-8.056396 19.974602 35.115292 2082.654943 24.091493 -0.064865 -0.201599 0.334098 6.453207 14.548293 9.620643 -3.759263 0.000002 0.000004 3.568001 -0.147795 -7.606105 -0.944255 0.000001 -0.000005 8.296394 -16.678436 -13.981156 1.342374 -0.000001 0.000000 2.173905 -0.923923 -2.879798 -3.942001 1.927600 0.221398 6.048999 -15.913253 3.043191 2.643177 4.959702 0.000006 0.000002 13.405239 24.570631 -43.720263 0.000001 0.000001 -8.654200 -52.539465 -2.369142 3.668715 0.000000 0.000002 -13.864103 1255.867757 -172.834727 179.443905 -3.155704 -0.765003 6.687799 33.083650 1.585070 -13.481345 -3.592905 -0.000002 0.000004 17.930312 -19.182303 75.102909 -0.000001 0.000001 -10.352392 -78.551629 -108.436022 -19.737858 0.000002 -0.000005 -12.750299 -628.745578 9.706553 23.225158 2.460596 -0.518101 -2.735504 86.072084 -34.716468 70.381691 -0.000010 -0.000004 -17.005898 -283.430256 -8.048516 -28.215520 -0.000002 -0.000001 -19.194401 250.235646 65.026966 55.743725 -3.115503 -0.679595 -2.320301 -42.471984 -45.857385 -31.504155 0.000004 -0.000005 -17.680395 -264.886183 53.712471 -88.023202 0.000000 -0.000003 -16.993797 282.040313 24.308607 -11.663341
-8.336197 20.120306 34.721588 2083.938363 24.697827 -0.149004 -0.201597 0.334102 6.453199 14.844363 9.712602 -3.747535 0.000003 0.000001 3.567996 -0.139445 -7.591238 -0.940667 0.000004 -0.000003 8.296397 -17.270350 -14.310025 1.414802 -0.000002 0.000002 2.173908 -0.970164 -2.795641 -3.964507 1.927602 0.221407 6.049001 -16.090751 3.118151 2.736342 4.959702 -0.000001 -0.000001 10.317495 23.917063 -40.670645 -0.000001 0.000003 -8.654200 -53.914337 -2.271651 3.835103 -0.000003 0.000005 -13.864096 1258.060084 -173.202778 180.454609 -3.155703 -0.765002 6.687798 33.312100 1.708051 -13.977504 -3.592904 -0.000005 0.000008 19.602803 -19.048303 74.301714 -0.000006 -0.000000 -10.352390 -73.767962 -109.980314 -14.973120 0.000001 -0.000008 -12.750307 -626.299223 9.135669 24.020846 2.460598 -0.518102 -2.735505 87.561700 -34.380140 72.651602 -0.000001 -0.000001 -17.005898 -274.450716 147.810799 -135.813011 -0.000003 0.000004 -19.194401 413.598827 26.076989 58.711862 -3.115495 -0.679598 -2.320309 -44.120894 -46.085786 -33.625786 -0.000000 -0.000004 -17.680393 -263.162790 62.991952 -90.698273 0.000005 -0.000006 -16.993799 282.545091 24.878901 -1.884441
-8.629994 20.260704 34.354794 2085.008463 25.269439 -0.178366 -0.201599 0.334094 6.453203 15.088998 9.822569 -3.661302 0.000004 0.000001 3.567993 -0.150596 -7.571250 -0.944214 -0.000002 -0.000002 8.296391 -17.620486 -14.663969 1.388544 -0.000005 -0.000001 2.173908 -1.051397 -2.713907 -3.936358 1.927598 0.221404 6.048994 -16.174161 3.045199 2.908484 4.959699 0.000004 0.000003 7.422796 23.057286 -37.951130 0.000004 -0.000001 -8.654200 -55.663095 -2.368280 3.896444 0.000002 -0.000001 -13.864104 1260.469337 -173.277132 181.331345 -3.155704 -0.765000 6.687788 33.541106 1.780838 -14.387274 -3.592908 0.000006 0.000006 21.252866 -18.864574 73.028007 -0.000001 -0.000002 -10.352396 -70.059053 -111.864073 -11.791226 0.000001 -0.000004 -12.750305 -631.699061 7.179822 25.838711 2.460598 -0.518105 -2.735497 89.050818 -34.044716 74.737651 -0.000004 -0.000003 -17.005894 -278.113610 148.814850 -130.034371 -0.000007 -0.000002 -19.194401 418.242317 21.644540 55.443903 -3.115497 -0.679600 -2.320301 -45.282983 -46.251879 -35.415381 -0.000001 0.000003 -17.680391 -260.816292 72.427176 -93.993266 0.000003 0.000000 -16.993795 282.469577 24.710110 7.992150
-8.931097 20.390400 34.022495 2085.922506 25.758506 -0.201976 -0.201596 0.334098 6.453205 15.224533 10.023528 -3.515406 -0.000002 0.000002 3.567993 -0.182224 -7.559044 -0.946484 -0.000003 -0.000003 8.296392 -17.751532 -15.071695 1.314244 -0.000003 0.000000 2.173908 -1.098185 -2.650230 -3.882868 1.927603 0.221409 6.048997 -16.162893 2.981571 3.106567 4.959700 0.000004 0.000002 4.259142 21.858583 -35.339085 -0.000003 0.000001 -8.654200 -57.107881 -2.479484 3.999823 0.000001 -0.000001 -13.864099 1263.070711 -173.210674 182.630092 -3.155700 -0.765000 6.687798 33.917579 1.928881 -14.756344 -3.592903 -0.000005 0.000006 22.869391 -18.505148 71.474665 -0.000005 0.000000 -10.352389 -66.916661 -113.893937 -9.627770 0.000003 -0.000013 -12.750299 -626.931862 8.069282 26.739842 2.460604 -0.518106 -2.735504 90.483061 -33.607912 76.594841 -0.000001 -0.000005 -17.005898 -279.950275 148.761725 -124.501002 -0.000005 0.000001 -19.194401 421.681345 16.464859 50.402387 -3.115494 -0.679602 -2.320301 -46.187775 -46.335358 -36.866520 0.000003 -0.000000 -17.680391 -254.667811 81.019294 -100.868801 0.000001 0.000001 -16.993793 281.820709 23.912178 16.072410
